<svg width="469" height="441" viewBox="0 0 469 441" fill="none" xmlns="http://www.w3.org/2000/svg">
<path fill-rule="evenodd" clip-rule="evenodd" d="M355.258 0.132035L355.192 0.197118L355.207 2.37412H357.384L357.45 2.30811L357.516 2.37412L357.582 2.44014L357.516 2.50596L357.602 124.931L388.081 124.888L388.009 21.9625L388.649 21.9621V21.322H389.29L390.319 20.2937V19.808H390.805L390.959 19.6545L390.957 19.168L391.447 19.1666L408.251 2.37412H408.39L410.544 0.219853L465.766 0.0663852L465.832 2.52575e-05L465.898 0.0660175L465.964 0.13201L465.898 0.197658L465.906 2.37412H468.091L468.157 2.30811L468.223 2.37412L468.289 2.44014L468.223 2.50595L468.376 127.165L468.442 127.231L449.415 146.246L449.416 146.753L448.908 146.753L448.842 146.819L448.776 146.753V147.394H448.114L446.953 148.554V149.062H446.445L446.379 149.128L446.313 149.062L446.314 149.702L412.972 149.747L413.022 221.867L465.766 221.721L465.832 221.654L465.898 221.72L465.964 221.786L465.898 221.852L465.906 224.036L468.09 224.029L468.157 223.962L468.223 224.028L468.289 224.094L468.223 224.16L468.376 265.574L468.442 265.64L449.414 284.641L449.416 285.145L448.908 285.146L448.842 285.213L448.776 285.147L448.78 285.787L444.161 285.817L444.157 285.177L443.517 285.179L443.374 246.572L412.96 246.657L413.035 265.585L413.09 265.64L413.035 265.694L413.245 318.729L465.766 318.583L465.832 318.517L465.898 318.583L465.964 318.649L465.898 318.715L465.906 320.891L468.09 320.877L468.157 320.81L468.223 320.876L468.289 320.942L468.223 321.007L468.685 417.969L468.75 418.036L449.722 437.052L449.724 437.554L449.217 437.557L449.15 437.623L449.084 437.557L449.089 438.197L448.123 438.204L446.953 439.374V439.881H446.445L446.379 439.947L446.313 439.881L446.314 440.521L390.96 440.598L390.959 439.958L390.319 439.958V438.22L389.039 438.228L389.035 437.588L388.395 437.594L388.009 396.049L388.649 396.043L388.645 395.403L389.295 395.398L408.251 376.47L412.737 376.425L412.804 376.358L412.87 376.424L412.936 376.49L412.871 376.555L413.234 415.75L443.721 415.707L443.377 343.435L390.961 343.581L390.959 342.941L390.319 342.941V341.28L389.039 341.288L389.035 340.648L388.395 340.651L388.175 285.179L388.164 285.179L388.02 246.572L357.534 246.657L357.671 417.984L357.737 418.05L338.709 437.066L338.709 437.573L338.202 437.573L338.136 437.639L338.069 437.573L338.07 438.213H337.407L336.246 439.374V439.881H335.738L335.672 439.947L335.606 439.881L335.607 440.521L280.1 440.598L280.1 440.521L224.67 440.598L224.669 439.958L224.029 439.958V438.219L222.672 438.228L222.668 437.588L222.028 437.593L221.719 396.047L222.359 396.043L222.355 395.403L223.004 395.398L241.961 376.455L246.447 376.425L246.514 376.358L246.58 376.424L246.646 376.49L246.581 376.555L246.871 415.75L277.567 415.707L277.166 343.586L224.67 343.658L224.669 343.018L224.029 343.018V341.273H222.668V340.633L222.028 340.635L221.719 243.618L222.359 243.616V242.976H223L224.029 241.949V241.462L224.517 241.461L224.669 241.31L224.667 240.821L225.16 240.82L241.961 224.043L242.085 224.043L244.254 221.874L277.219 221.783L277.15 24.9185L246.621 25.0033L246.887 171.404L246.953 171.47L227.926 190.485L227.927 190.99L227.419 190.991L227.353 191.058L227.287 190.992L227.287 191.632H222.668V190.992L222.028 190.993L221.725 24.9185L191.088 25.0034L191.226 224.029L191.292 224.094L191.074 224.313L191.226 265.574L191.292 265.64L172.264 284.641L172.266 285.145L171.758 285.146L171.692 285.213L171.626 285.147L171.63 285.787L167.011 285.817L167.007 285.177L166.367 285.179L166.224 246.572L135.756 246.657L135.87 318.81L188.631 318.737L188.697 318.67L188.763 318.736L188.829 318.802L188.763 318.868V321.045L190.94 321.031L191.007 320.964L191.073 321.03L191.139 321.096L191.073 321.161L191.535 417.97L191.601 418.036L172.572 437.052L172.574 437.554L172.067 437.557L172 437.623L171.934 437.557L171.939 438.197L170.974 438.204L169.803 439.374V439.881H169.295L169.229 439.947L169.163 439.881L169.164 440.521L113.81 440.598L113.81 439.958L113.17 439.958V438.218L111.658 438.228L111.654 437.588L111.014 437.591L110.86 396.045L111.5 396.043L111.496 395.403L112.145 395.398L131.101 376.455L135.587 376.439L135.654 376.373L135.72 376.439L135.786 376.505L135.721 376.57L135.865 415.75L166.571 415.707L166.227 343.586L113.81 343.658L113.81 343.018L113.17 343.018V341.273H111.654L111.654 340.633L111.014 340.634L110.86 243.617L111.5 243.616L111.014 243.616L110.862 24.9186L80.3747 25.0033L80.4437 224.029L80.5097 224.094L80.4329 224.171L80.4437 224.182L80.5097 224.248L80.4436 224.314L80.3668 290.271L80.4328 290.337L61.4067 309.35L61.4061 309.859L60.898 309.859L60.8321 309.924L60.7661 309.858L60.766 310.499H56.1468V309.858L55.5068 309.858L55.5806 246.572L24.8777 246.657L25.0119 415.75L55.5591 415.708L55.5068 369.485L56.1468 369.485V368.844H56.7874L75.7476 349.896H80.2348L80.3009 349.83L80.3668 349.896L80.4328 349.962L80.367 350.028L80.4437 417.985L80.5097 418.05L61.4826 437.066L61.4831 437.572L60.9754 437.573L60.9091 437.639L60.8705 437.601L60.8431 437.628L60.843 438.213H60.2576L59.0965 439.374V439.881H58.5885L58.5225 439.947L58.4565 439.881L58.4574 440.521L3.10438 440.598L3.1035 439.958L2.4635 439.958V438.213H0.79393V437.573L0.153992 437.574L0 243.617L0.153992 243.616L0 21.9625L0.64 21.962V21.322H1.28048L20.2406 2.37412H24.7278L24.7938 2.3081L24.8598 2.37412L24.9258 2.44014L24.8599 2.50599L24.9449 124.931L55.5426 124.888L55.5068 21.9622L56.1468 21.962V21.322H56.7873L57.8165 20.2934V19.808H58.3023L58.4561 19.6543L58.4548 19.168L58.944 19.1666L75.7476 2.37412H75.8878L78.0418 0.219853L133.262 0.0663854L133.328 2.60994e-05L133.394 0.0660479L133.46 0.132009L133.395 0.197572L133.395 0.219852L188.616 0.0663853L188.682 2.52798e-05L188.748 0.0660327L188.814 0.13201L188.749 0.197613L188.749 0.219852L244.122 0.0663843L244.188 2.5332e-05L244.254 0.0660175L244.32 0.13201L244.255 0.197559L244.255 0.219852L299.552 0.0663848L299.618 2.53022e-05L299.684 0.0660479L299.75 0.13201L299.685 0.197602L299.685 0.373776L355.059 0.0667535L355.126 0L355.192 0.0660175L355.258 0.132035ZM332.659 246.572L332.793 415.708L302.536 415.75L302.011 321.161L302.076 321.096L302.01 321.03L301.944 320.964L301.877 321.031L299.7 321.045V318.868L299.766 318.802L299.7 318.736L299.634 318.67L299.568 318.737L246.88 318.81L246.652 246.657L277.155 246.572L277.227 285.163L277.867 285.162L277.867 285.802H282.486L282.486 285.162L282.552 285.228L282.618 285.161L283.126 285.161L283.125 284.655L302.152 265.64L302.086 265.574L302.052 246.657L332.659 246.572ZM388.099 149.706L388.149 221.782L357.669 221.867L357.619 149.747L388.099 149.706ZM166.215 24.9186L166.352 221.782L135.872 221.867L135.736 25.0033L166.215 24.9186ZM25.0122 221.867L55.5763 221.782L55.5512 149.706L24.9621 149.748L25.0122 221.867ZM302.085 221.867L332.795 221.782L332.745 149.706L302.061 149.748L302.085 221.867ZM332.659 24.9268L332.728 124.888L302.052 124.931L302.018 25.0966L332.659 24.9268ZM443.367 24.9186L412.886 25.0033L412.955 124.931L443.49 124.888L443.367 24.9186Z" fill="#79F3F9"/>
</svg>
